ffmpeg started on 2020-05-21 at 15:11:47
Report written to "ffmpeg-20200521-151147.log"
Log level: 48
ffmpeg version N-96867-g879e204 Copyright (c) 2000-2020 the FFmpeg developers
  built with gcc 5.4.0 (Ubuntu/Linaro 5.4.0-6ubuntu1~16.04.12) 20160609
  configuration: --enable-gpl --enable-libx264 --enable-opencl
  libavutil      56. 42.100 / 56. 42.100
  libavcodec     58. 73.102 / 58. 73.102
  libavformat    58. 39.101 / 58. 39.101
  libavdevice    58.  9.103 / 58.  9.103
  libavfilter     7. 77.100 /  7. 77.100
  libswscale      5.  6.100 /  5.  6.100
  libswresample   3.  6.100 /  3.  6.100
  libpostproc    55.  6.100 / 55.  6.100
Input #0, mov,mp4,m4a,3gp,3g2,mj2, from 'bunny.mp4':
  Metadata:
    major_brand     : isom
    minor_version   : 512
    compatible_brands: isomiso2avc1mp41
    encoder         : Lavf58.29.100
  Duration: 00:00:29.72, start: 0.000000, bitrate: 2019 kb/s
    Stream #0:0(und): Video: h264 (High) (avc1 / 0x31637661), yuv420p, 1280x720 [SAR 1:1 DAR 16:9], 1629 kb/s, 25 fps, 25 tbr, 12800 tbn, 50 tbc (default)
    Metadata:
      handler_name    : VideoHandler
    Stream #0:1(und): Audio: aac (LC) (mp4a / 0x6134706D), 48000 Hz, 5.1, fltp, 384 kb/s (default)
    Metadata:
      handler_name    : SoundHandler
Stream mapping:
  Stream #0:0 -> #0:0 (h264 (native) -> h264 (libx264))
  Stream #0:1 -> #0:1 (aac (native) -> aac (native))
Press [q] to stop, [?] for help
[libx264 @ 0x18b8cf0] using SAR=1/1
[libx264 @ 0x18b8cf0] using cpu capabilities: ARMv6 NEON
[libx264 @ 0x18b8cf0] profile High, level 3.1
[libx264 @ 0x18b8cf0] 264 - core 148 r2643 5c65704 - H.264/MPEG-4 AVC codec - Copyleft 2003-2015 - http://www.videolan.org/x264.html - options: cabac=1 ref=3 deblock=1:0:0 analyse=0x3:0x113 me=hex subme=7 psy=1 psy_rd=1.00:0.00 mixed_ref=1 me_range=16 chroma_me=1 trellis=1 8x8dct=1 cqm=0 deadzone=21,11 fast_pskip=1 chroma_qp_offset=-2 threads=12 lookahead_threads=2 sliced_threads=0 nr=0 decimate=1 interlaced=0 bluray_compat=0 constrained_intra=0 bframes=3 b_pyramid=2 b_adapt=1 b_bias=0 direct=1 weightb=1 open_gop=0 weightp=2 keyint=250 keyint_min=25 scenecut=40 intra_refresh=0 rc_lookahead=40 rc=crf mbtree=1 crf=23.0 qcomp=0.60 qpmin=0 qpmax=69 qpstep=4 ip_ratio=1.40 aq=1:1.00
Output #0, mp4, to '/home/odroid/thumbnail.mp4':
  Metadata:
    major_brand     : isom
    minor_version   : 512
    compatible_brands: isomiso2avc1mp41
    encoder         : Lavf58.39.101
    Stream #0:0(und): Video: h264 (libx264) (avc1 / 0x31637661), nv12, 1280x720 [SAR 1:1 DAR 16:9], q=-1--1, 25 fps, 12800 tbn, 25 tbc (default)
    Metadata:
      handler_name    : VideoHandler
      encoder         : Lavc58.73.102 libx264
    Side data:
      cpb: bitrate max/min/avg: 0/0/0 buffer size: 0 vbv_delay: N/A
    Stream #0:1(und): Audio: aac (LC) (mp4a / 0x6134706D), 48000 Hz, 5.1, fltp, 341 kb/s (default)
    Metadata:
      handler_name    : SoundHandler
      encoder         : Lavc58.73.102 aac
[*] decode_video start
[*] decode_video start
[*] decode_video start
[*] next target filter 0x1a53e00
[*] next target filter 0x1a53e00
[*] decode_video start
[*] next target filter 0x1a53e00
[*] next target filter 0x1a53e00
[*] decode_video start
[*] next target filter 0x1a53e00
[*] next target filter 0x1a53e00
[*] decode_video start
[*] next target filter 0x1a53e00
[*] next target filter 0x1a53e00
[*] decode_video start
[*] next target filter 0x1a53e00
[*] next target filter 0x1a53e00
[*] decode_video start
[*] next target filter 0x1a53e00
[*] next target filter 0x1a53e00
[*] decode_video start
[*] next target filter 0x1a53e00
[*] next target filter 0x1a53e00
[*] decode_video start
[*] next target filter 0x1a53e00
[*] decode_video start
send_frame_to_filters before 0
[*] next target filter 0x199b680
[*] input frame addr 0x18631b0
[*] key_frame: 1
clCreateCommandQueue error code: 0

thumbnail_opencl_filter_frame:369
thumbnail_opencl_filter_frame:423
[*] test decoded_frame addr 0x199b680
send_frame_to_filters after 0
[*] decode_video start
[*] next target filter 0x1a53e00
[*] next target filter 0x1a53e00
[*] decode_video start
[*] decode_video start
[*] next target filter 0x1a53e00
[*] next target filter 0x1a53e00
[*] decode_video start
[*] decode_video start
[*] next target filter 0x1a53e00
[*] next target filter 0x1a53e00
[*] decode_video start
[*] decode_video start
[*] next target filter 0x1a53e00
[*] next target filter 0x1a53e00
[*] decode_video start
[*] decode_video start
[*] next target filter 0x1a53e00
[*] next target filter 0x1a53e00
[*] decode_video start
[*] decode_video start
[*] next target filter 0x1a53e00
[*] next target filter 0x1a53e00
[*] decode_video start
[*] decode_video start
[*] next target filter 0x1a53e00
[*] next target filter 0x1a53e00
[*] decode_video start
[*] decode_video start
[*] next target filter 0x1a53e00
[*] decode_video start
[*] decode_video start
[*] next target filter 0x1a53e00
[*] next target filter 0x1a53e00
[*] decode_video start
[*] decode_video start
[*] next target filter 0x1a53e00
[*] next target filter 0x1a53e00
[*] decode_video start
[*] decode_video start
[*] next target filter 0x1a53e00
[*] next target filter 0x1a53e00
[*] decode_video start
[*] decode_video start
[*] next target filter 0x1a53e00
[*] next target filter 0x1a53e00
[*] decode_video start
[*] decode_video start
[*] next target filter 0x1a53e00
[*] next target filter 0x1a53e00
[*] decode_video start
[*] decode_video start
[*] next target filter 0x1a53e00
[*] next target filter 0x1a53e00
[*] decode_video start
[*] decode_video start
[*] next target filter 0x1a53e00
[*] next target filter 0x1a53e00
[*] decode_video start
[*] decode_video start
[*] next target filter 0x1a53e00
[*] decode_video start
[*] decode_video start
[*] next target filter 0x1a53e00
[*] next target filter 0x1a53e00
[*] decode_video start
[*] decode_video start
[*] next target filter 0x1a53e00
[*] next target filter 0x1a53e00
[*] decode_video start
[*] decode_video start
[*] next target filter 0x1a53e00
[*] next target filter 0x1a53e00
[*] decode_video start
[*] decode_video start
[*] next target filter 0x1a53e00
[*] next target filter 0x1a53e00
[*] decode_video start
[*] decode_video start
[*] next target filter 0x1a53e00
[*] next target filter 0x1a53e00
[*] decode_video start
[*] decode_video start
[*] next target filter 0x1a53e00
[*] next target filter 0x1a53e00
[*] decode_video start
[*] decode_video start
[*] next target filter 0x1a53e00
[*] next target filter 0x1a53e00
[*] decode_video start
[*] decode_video start
[*] next target filter 0x1a53e00
[*] decode_video start
[*] decode_video start
[*] next target filter 0x1a53e00
[*] next target filter 0x1a53e00
[*] decode_video start
[*] decode_video start
[*] next target filter 0x1a53e00
[*] next target filter 0x1a53e00
[*] decode_video start
[*] decode_video start
[*] next target filter 0x1a53e00
[*] next target filter 0x1a53e00
[*] decode_video start
[*] decode_video start
[*] next target filter 0x1a53e00
[*] next target filter 0x1a53e00
[*] decode_video start
[*] decode_video start
[*] frame=    0 fps=0.0 q=0.0 size=       0kB time=00:00:01.45 bitrate=   0.3kbits/s speed=2.89x    next target filter 0x1a53e00
[*] next target filter 0x1a53e00
[*] decode_video start
[*] decode_video start
[*] next target filter 0x1a53e00
[*] next target filter 0x1a53e00
[*] decode_video start
[*] decode_video start
[*] next target filter 0x1a53e00
[*] next target filter 0x1a53e00
[*] decode_video start
[*] decode_video start
[*] next target filter 0x1a53e00
[*] decode_video start
[*] decode_video start
[*] next target filter 0x1a53e00
[*] next target filter 0x1a53e00
[*] decode_video start
[*] decode_video start
[*] next target filter 0x1a53e00
[*] next target filter 0x1a53e00
[*] decode_video start
[*] decode_video start
[*] next target filter 0x1a53e00
[*] next target filter 0x1a53e00
[*] decode_video start
[*] decode_video start
[*] next target filter 0x1a53e00
[*] next target filter 0x1a53e00
[*] decode_video start
[*] decode_video start
[*] next target filter 0x1a53e00
[*] next target filter 0x1a53e00
[*] decode_video start
[*] decode_video start
[*] next target filter 0x1a53e00
[*] next target filter 0x1a53e00
[*] decode_video start
[*] decode_video start
[*] next target filter 0x1a53e00
[*] next target filter 0x1a53e00
[*] decode_video start
[*] decode_video start
[*] next target filter 0x1a53e00
[*] decode_video start
[*] decode_video start
[*] next target filter 0x1a53e00
[*] next target filter 0x1a53e00
[*] decode_video start
[*] decode_video start
[*] next target filter 0x1a53e00
[*] next target filter 0x1a53e00
[*] decode_video start
[*] decode_video start
[*] next target filter 0x1a53e00
[*] next target filter 0x1a53e00
[*] decode_video start
[*] decode_video start
[*] next target filter 0x1a53e00
[*] next target filter 0x1a53e00
[*] decode_video start
[*] decode_video start
[*] next target filter 0x1a53e00
[*] next target filter 0x1a53e00
[*] decode_video start
[*] decode_video start
[*] next target filter 0x1a53e00
[*] next target filter 0x1a53e00
[*] decode_video start
[*] decode_video start
[*] next target filter 0x1a53e00
[*] next target filter 0x1a53e00
[*] decode_video start
[*] decode_video start
[*] next target filter 0x1a53e00
[*] decode_video start
[*] decode_video start
[*] next target filter 0x1a53e00
[*] next target filter 0x1a53e00
[*] decode_video start
[*] decode_video start
[*] next target filter 0x1a53e00
[*] next target filter 0x1a53e00
[*] decode_video start
[*] decode_video start
[*] next target filter 0x1a53e00
[*] next target filter 0x1a53e00
[*] decode_video start
[*] decode_video start
[*] next target filter 0x1a53e00
[*] next target filter 0x1a53e00
[*] decode_video start
[*] decode_video start
[*] next target filter 0x1a53e00
[*] next target filter 0x1a53e00
[*] decode_video start
[*] decode_video start
[*] next target filter 0x1a53e00
[*] next target filter 0x1a53e00
[*] decode_video start
[*] decode_video start
[*] next target filter 0x1a53e00
[*] next target filter 0x1a53e00
[*] decode_video start
[*] decode_video start
[*] next target filter 0x1a53e00
[*] decode_video start
[*] decode_video start
[*] next target filter 0x1a53e00
[*] next target filter 0x1a53e00
[*] decode_video start
[*] decode_video start
[*] next target filter 0x1a53e00
[*] next target filter 0x1a53e00
[*] decode_video start
[*] decode_video start
[*] next target filter 0x1a53e00
[*] next target filter 0x1a53e00
[*] decode_video start
[*] decode_video start
[*] next target filter 0x1a53e00
[*] next target filter 0x1a53e00
[*] decode_video start
[*] decode_video start
[*] next target filter 0x1a53e00
[*] next target filter 0x1a53e00
[*] decode_video start
[*] decode_video start
[*] next target filter 0x1a53e00
[*] next target filter 0x1a53e00
[*] decode_video start
[*] decode_video start
[*] next target filter 0x1a53e00
[*] next target filter 0x1a53e00
[*] decode_video start
[*] decode_video start
[*] next target filter 0x1a53e00
[*] decode_video start
[*] decode_video start
[*] next target filter 0x1a53e00
[*] next target filter 0x1a53e00
[*] decode_video start
[*] decode_video start
[*] next target filter 0x1a53e00
[*] next target filter 0x1a53e00
[*] decode_video start
[*] decode_video start
[*] next frame=    0 fps=0.0 q=0.0 size=       0kB time=00:00:04.33 bitrate=   0.1kbits/s speed=4.32x    target filter 0x1a53e00
[*] next target filter 0x1a53e00
[*] decode_video start
[*] decode_video start
[*] next target filter 0x1a53e00
[*] next target filter 0x1a53e00
[*] decode_video start
[*] decode_video start
[*] next target filter 0x1a53e00
[*] next target filter 0x1a53e00
[*] decode_video start
[*] decode_video start
[*] next target filter 0x1a53e00
[*] next target filter 0x1a53e00
[*] decode_video start
[*] decode_video start
[*] next target filter 0x1a53e00
[*] next target filter 0x1a53e00
[*] decode_video start
[*] decode_video start
[*] next target filter 0x1a53e00
[*] decode_video start
[*] decode_video start
[*] next target filter 0x1a53e00
[*] next target filter 0x1a53e00
[*] decode_video start
[*] decode_video start
[*] next target filter 0x1a53e00
[*] next target filter 0x1a53e00
[*] decode_video start
[*] decode_video start
[*] next target filter 0x1a53e00
[*] next target filter 0x1a53e00
[*] decode_video start
[*] decode_video start
[*] next target filter 0x1a53e00
[*] next target filter 0x1a53e00
[*] decode_video start
[*] decode_video start
[*] next target filter 0x1a53e00
[*] next target filter 0x1a53e00
[*] decode_video start
[*] decode_video start
[*] next target filter 0x1a53e00
[*] next target filter 0x1a53e00
[*] decode_video start
[*] decode_video start
[*] next target filter 0x1a53e00
[*] next target filter 0x1a53e00
[*] decode_video start
[*] decode_video start
[*] next target filter 0x1a53e00
[*] decode_video start
[*] decode_video start
[*] next target filter 0x1a53e00
[*] next target filter 0x1a53e00
[*] decode_video start
[*] decode_video start
[*] next target filter 0x1a53e00
[*] next target filter 0x1a53e00
[*] decode_video start
[*] decode_video start
[*] next target filter 0x1a53e00
[*] next target filter 0x1a53e00
[*] decode_video start
[*] decode_video start
[*] next target filter 0x1a53e00
[*] next target filter 0x1a53e00
[*] decode_video start
[*] decode_video start
[*] next target filter 0x1a53e00
[*] next target filter 0x1a53e00
[*] decode_video start
[*] decode_video start
[*] next target filter 0x1a53e00
[*] next target filter 0x1a53e00
[*] decode_video start
[*] decode_video start
[*] next target filter 0x1a53e00
[*] next target filter 0x1a53e00
[*] decode_video start
[*] decode_video start
[*] next target filter 0x1a53e00
[*] decode_video start
[*] decode_video start
[*] next target filter 0x1a53e00
[*] next target filter 0x1a53e00
[*] decode_video start
[*] decode_video start
[*] next target filter 0x1a53e00
[*] next target filter 0x1a53e00
[*] decode_video start
[*] decode_video start
[*] next target filter 0x1a53e00
[*] next target filter 0x1a53e00
[*] decode_video start
[*] decode_video start
[*] next target filter 0x1a53e00
[*] next target filter 0x1a53e00
[*] decode_video start
[*] decode_video start
[*] next target filter 0x1a53e00
[*] next target filter 0x1a53e00
[*] decode_video start
[*] decode_video start
[*] next target filter 0x1a53e00
[*] next target filter 0x1a53e00
[*] decode_video start
[*] decode_video start
[*] next target filter 0x1a53e00
[*] next target filter 0x1a53e00
[*] decode_video start
[*] decode_video start
[*] next target filter 0x1a53e00
[*] decode_video start
[*] decode_video start
[*] next target filter 0x1a53e00
[*] next target filter 0x1a53e00
[*] decode_video start
[*] decode_video start
[*] next target filter 0x1a53e00
[*] next target filter 0x1a53e00
[*] decode_video start
[*] decode_video start
[*] next target filter 0x1a53e00
[*] next target filter 0x1a53e00
[*] decode_video start
[*] decode_video start
[*] next target filter 0x1a53e00
[*] next target filter 0x1a53e00
[*] decode_video start
[*] decode_video start
[*] next target filter 0x1a53e00
[*] next target filter 0x1a53e00
[*] decode_video start
[*] decode_video start
[*] next target filter 0x1a53e00
[*] next target filter 0x1a53e00
[*] decode_video start
[*] decode_video start
[*] next target filter 0x1a53e00
[*] next target filter 0x1a53e00
[*] decode_video start
[*] decode_video start
[*] next target filter 0x1a53e00
[*] decode_video start
[*] decode_video start
[*] next target filter 0x1a53e00
[*] next target filter 0x1a53e00
[*] decode_video start
[*] decode_video start
[*] next target filter 0x1a53e00
[*] next target filter 0x1a53e00
[*] decode_video start
[*] decode_video start
[*] next target filter 0x1a53e00
[*] next target filter 0x1a53e00
[*] decode_video start
[*] decode_video start
[*] next target filter 0x1a53e00
[*] next target filter 0x1a53e00
[*] decode_video start
[*] decode_video start
[*] next target filter 0x1a53e00
[*] next target filter 0x1a53e00
[*] decode_video start
[*] decode_video start
[*] next target filter 0x1a53e00
[*] next target filter 0x1a53e00
[*] decode_video start
[*] decode_video start
[*] next target filter 0x1a53e00
[*] next target filter 0x1a53e00
[*] decode_video start
[*] decode_video start
[*] next target filter 0x1a53e00
[*] decode_video start
[*] decode_video start
[*] next target filter 0x1a53e00
[*] next target filter 0x1a53e00
[*] decode_video start
[*] decode_video start
[*] next target filter 0x1a53e00
[*] next target filter 0x1a53e00
[*] decode_video start
[*] decode_video start
[*] next target filter 0x1a53e00
[*] next target filter 0x1a53e00
[*] decode_video start
[*] decode_video start
[*] next target filter 0x1a53e00
[*] next target filter 0x1a53e00
[*] decode_video start
[*] decode_video start
[*] next target filter 0x1a53e00
[*] next target filter 0x1a53e00
[*] decode_video start
[*] decode_video start
[*] next target filter 0x1a53e00
[*] next target filter 0x1a53e00
[*] decode_video start
[*] decode_video start
[*] next target filter 0x1a53e00
[*] next target filter 0x1a53e00
[*] decode_video start
[*] decode_video start
[*] next target filter 0x1a53e00
[*] decode_video start
[*] decode_video start
[*] next target filter 0x1a53e00
[*] next target filter 0x1a53e00
[*] decode_video start
[*] decode_video start
[*] next target filter 0x1a53e00
[*] next target filter 0x1a53e00
[*] decode_video start
[*] decode_video start
[*] next target filter 0x1a53e00
[*] next target filter 0x1a53e00
[*] decode_video start
[*] decode_video start
[*] next target filter 0x1a53e00
[*] next target filter 0x1a53e00
[*] decode_video start
[*] decode_video start
[*] next target filter 0x1a53e00
[*] next target filter 0x1a53e00
[*] decode_video start
[*] decode_video start
[*] next target filter 0x1a53e00
[*] next target filter 0x1a53e00
[*] decode_video start
[*] decode_video start
[*] next target filter 0x1a53e00
[*] next target filter 0x1a53e00
[*] decode_video start
[*] decode_video start
[*] next target filter 0x1a53e00
[*] decode_video start
[*] decode_video start
[*] next target filter 0x1a53e00
[*] next target filter 0x1a53e00
[*] decode_video start
[*] decode_video start
[*] next target filter 0x1a53e00
[*] next target filter 0x1a53e00
[*] decode_video start
[*] decode_video start
[*] next target filter 0x1a53e00
[*] next target filter 0x1a53e00
[*] decode_video start
[*] decode_video start
[*] next target filter 0x1a53e00
[*] next target filter 0x1a53e00
[*] decode_video start
[*] decode_video start
[*] next target filter 0x1a53e00
[*] next target filter 0x1a53e00
[*] decode_video start
[*] decode_video start
[*] next target filter 0x1a53e00
[*] next target filter 0x1a53e00
[*] decode_video start
[*] decode_video start
[*] next target filter 0x1a53e00
[*] next target filter 0x1a53e00
[*] decode_video start
[*] decode_video start
[*] next target filter 0x1a53e00
[*] decode_video start
[*] decode_video start
[*] next target filter 0x1a53e00
[*] next target filter 0x1a53e00
[*] decode_video start
[*] decode_video start
[*] next target filter 0x1a53e00
[*] next target filter 0x1a53e00
[*] decode_video start
[*] decode_video start
[*] next target filter 0x1a53e00
[*] next target filter 0x1a53e00
[*] decode_video start
[*] decode_video start
[*] next target filter 0x1a53e00
[*] next target filter 0x1a53e00
[*] decode_video start
[*] decode_video start
[*] next target filter 0x1a53e00
[*] next target filter 0x1a53e00
[*] decode_video start
[*] decode_video start
[*] next target filter 0x1a53e00
[*] next target filter 0x1a53e00
[*] decode_video start
[*] decode_video start
[*] next target filter 0x1a53e00
[*] next target filter 0x1a53e00
[*] decode_video start
[*] decode_video start
[*] next target filter 0x1a53e00
[*] decode_video start
[*] decode_video start
[*] next target filter 0x1a53e00
[*] next target filter 0x1a53e00
[*] decode_video start
[*] decode_video start
[*] next target filter 0x1a53e00
[*] next target filter 0x1a53e00
[*] decode_video start
[*] decode_video start
[*] next target filter 0x1a53e00
[*] next target filter 0x1a53e00
[*] decode_video start
[*] decode_video start
[*] next target filter 0x1a53e00
[*] next target filter 0x1a53e00
[*] decode_video start
[*] decode_video start
[*] next target filter 0x1a53e00
[*] next target filter 0x1a53e00
[*] decode_video start
[*] decode_video start
[*] next target filter 0x1a53e00
[*] next target filter 0x1a53e00
[*] decode_video start
[*] decode_video start
[*] next target filter 0x1a53e00
[*] next target filter 0x1a53e00
[*] decode_video start
[*] decode_video start
[*] next target filter 0x1a53e00
[*] decode_video start
[*] decode_video start
[*] next target filter 0x1a53e00
[*] next target filter 0x1a53e00
[*] decode_video start
[*] decode_video start
[*] next target filter 0x1a53e00
[*] next target filter 0x1a53e00
[*] decode_video start
[*] decode_video start
[*] next target filter 0x1a53e00
[*] next target filter 0x1a53e00
[*] decode_video start
[*] decode_video start
[*] next target filter 0x1a53e00
[*] next target filter 0x1a53e00
[*] decode_video start
[*] decode_video start
[*] next target filter 0x1a53e00
[*] next target filter 0x1a53e00
[*] decode_video start
[*] decode_video start
[*] next target filter 0x1a53e00
[*] next target filter 0x1a53e00
[*] decode_video start
[*] decode_video start
[*] next target filter 0x1a53e00
[*] next target filter 0x1a53e00
[*] decode_video start
[*] decode_video start
[*] next target filter 0x1a53e00
[*] decode_video start
[*] decode_video start
[*] next target filter 0x1a53e00
[*] next target filter 0x1a53e00
[*] decode_video start
[*] decode_video start
[*] next target filter 0x1a53e00
[*] next target filter 0x1a53e00
[*] decode_video start
[*] decode_video start
[*] next target filter 0x1a53e00
[*] next target filter 0x1a53e00
[*] decode_video start
[*] decode_video start
[*] next target filter 0x1a53e00
[*] next target filter 0x1a53e00
[*] decode_video start
[*] decode_video start
[*] next target filter 0x1a53e00
[*] next target filter 0x1a53e00
[*] decode_video start
[*] decode_video start
[*] next target filter 0x1a53e00
[*] next target filter 0x1a53e00
[*] decode_video start
[*] decode_video start
[*] next target filter 0x1a53e00
[*] next target filter 0x1a53e00
[*] decode_video start
[*] decode_video start
[*] next target filter 0x1a53e00
[*] decode_video start
[*] decode_video start
[*] next target filter 0x1a53e00
[*] next target filter 0x1a53e00
[*] decode_video start
[*] decode_video start
[*] next target filter 0x1a53e00
[*] next target filter 0x1a53e00
[*] decode_video start
[*] decode_video start
[*] next target filter 0x1a53e00
[*] next target filter 0x1a53e00
[*] decode_video start
[*] decode_video start
[*] next target filter 0x1a53e00
[*] next target filter 0x1a53e00
[*] decode_video start
[*] decode_video start
[*] next target filter 0x1a53e00
[*] next target filter 0x1a53e00
[*] decode_video start
[*] decode_video start
[*] next target filter 0x1a53e00
[*] next target filter 0x1a53e00
[*] decode_video start
[*] decode_video start
[*] next target filter 0x1a53e00
[*] next target filter 0x1a53e00
[*] decode_video start
[*] decode_video start
[*] next target filter 0x1a53e00
[*] decode_video start
[*] decode_video start
[*] next target filter 0x1a53e00
[*] next target filter 0x1a53e00
[*] decode_video start
[*] decode_video start
[*] next target filter 0x1a53e00
[*] next target filter 0x1a53e00
[*] decode_video start
[*] decode_video start
[*] next target filter 0x1a53e00
[*] next target filter 0x1a53e00
[*] decode_video start
[*] decode_video start
[*] next target filter 0x1a53e00
[*] next target filter 0x1a53e00
[*] decode_video start
[*] decode_vidframe=    0 fps=0.0 q=0.0 size=       0kB time=00:00:07.85 bitrate=   0.0kbits/s speed=5.22x    [Parsed_thumbnail_opencl_2 @ 0x18b6760] frame id #0 (pts_time=0.000000) selected from a set of 2 images
eo start
[*] next target filter 0x1a53e00
[*] next target filter 0x1a53e00
[*] decode_video start
[*] decode_video start
[*] next target filter 0x1a53e00
[*] next target filter 0x1a53e00
[*] decode_video start
[*] decode_video start
[*] next target filter 0x1a53e00
[*] next target filter 0x1a53e00
[*] decode_video start
[*] decode_video start
[*] next target filter 0x1a53e00
[*] decode_video start
[*] decode_video start
[*] next target filter 0x1a53e00
[*] next target filter 0x1a53e00
[*] decode_video start
[*] decode_video start
[*] next target filter 0x1a53e00
[*] next target filter 0x1a53e00
[*] decode_video start
[*] decode_video start
[*] next target filter 0x1a53e00
[*] next target filter 0x1a53e00
[*] decode_video start
[*] decode_video start
[*] next target filter 0x1a53e00
[*] next target filter 0x1a53e00
[*] decode_video start
[*] decode_video start
[*] next target filter 0x1a53e00
[*] next target filter 0x1a53e00
[*] decode_video start
[*] decode_video start
[*] next target filter 0x1a53e00
[*] next target filter 0x1a53e00
[*] decode_video start
[*] decode_video start
[*] next target filter 0x1a53e00
[*] next target filter 0x1a53e00
[*] decode_video start
[*] decode_video start
[*] next target filter 0x1a53e00
[*] decode_video start
[*] decode_video start
[*] next target filter 0x1a53e00
[*] next target filter 0x1a53e00
[*] decode_video start
[*] decode_video start
[*] next target filter 0x1a53e00
[*] next target filter 0x1a53e00
[*] decode_video start
[*] decode_video start
[*] next target filter 0x1a53e00
[*] next target filter 0x1a53e00
[*] decode_video start
[*] decode_video start
[*] next target filter 0x1a53e00
[*] next target filter 0x1a53e00
[*] decode_video start
[*] decode_video start
[*] next target filter 0x1a53e00
[*] next target filter 0x1a53e00
[*] decode_video start
[*] decode_video start
[*] next target filter 0x1a53e00
[*] next target filter 0x1a53e00
[*] decode_video start
[*] decode_video start
[*] next target filter 0x1a53e00
[*] next target filter 0x1a53e00
[*] decode_video start
[*] decode_video start
[*] next target filter 0x1a53e00
[*] decode_video start
[*] decode_video start
[*] next target filter 0x1a53e00
[*] next target filter 0x1a53e00
[*] decode_video start
[*] decode_video start
[*] next target filter 0x1a53e00
[*] next target filter 0x1a53e00
[*] decode_video start
[*] decode_video start
[*] next target filter 0x1a53e00
[*] next target filter 0x1a53e00
[*] decode_video start
[*] decode_video start
[*] next target filter 0x1a53e00
[*] next target filter 0x1a53e00
[*] decode_video start
[*] decode_video start
[*] next target filter 0x1a53e00
[*] next target filter 0x1a53e00
[*] decode_video start
[*] decode_video start
[*] next target filter 0x1a53e00
[*] next target filter 0x1a53e00
[*] decode_video start
[*] decode_video start
[*] next target filter 0x1a53e00
[*] next target filter 0x1a53e00
[*] decode_video start
[*] decode_video start
[*] next target filter 0x1a53e00
[*] decode_video start
[*] decode_video start
[*] next target filter 0x1a53e00
[*] next target filter 0x1a53e00
[*] decode_video start
[*] decode_video start
[*] next target filter 0x1a53e00
[*] next target filter 0x1a53e00
[*] decode_video start
send_frame_to_filters before 0
[*] next target filter 0x199b680
[*] input frame addr 0x2493a30
[*] key_frame: 1
thumbnail_opencl_filter_frame:369
thumbnail_opencl_filter_frame:423
thumbnail_opencl_filter_frame:431
thumbnail_opencl_filter_frame:438
[*] test decoded_frame addr 0x199b680
send_frame_to_filters after 0
[*] decode_video start
[*] next target filter 0x1a53e00
[*] next target filter 0x1a53e00
[*] decode_video start
[*] decode_video start
[*] next target filter 0x1a53e00
[*] next target filter 0x1a53e00
[*] decode_video start
[*] decode_video start
[*] next target filter 0x1a53e00
[*] next target filter 0x1a53e00
[*] decode_video start
[*] decode_video start
[*] next target filter 0x1a53e00
[*] next target filter 0x1a53e00
[*] decode_video start
[*] decode_video start
[*] next target filter 0x1a53e00
[*] next target filter 0x1a53e00
[*] decode_video start
[*] decode_video start
[*] next target filter 0x1a53e00
[*] decode_video start
[*] decode_video start
[*] next target filter 0x1a53e00
[*] next target filter 0x1a53e00
[*] decode_video start
[*] decode_video start
[*] next target filter 0x1a53e00
[*] next target filter 0x1a53e00
[*] decode_video start
[*] decode_video start
[*] next target filter 0x1a53e00
[*] next target filter 0x1a53e00
[*] decode_video start
[*] decode_video start
[*] next target filter 0x1a53e00
[*] next target filter 0x1a53e00
[*] decode_video start
[*] decode_video start
[*] next target filter 0x1a53e00
[*] next target filter 0x1a53e00
[*] decode_video start
[*] decode_video start
[*] next target filter 0x1a53e00
[*] next target filter 0x1a53e00
[*] decode_video start
[*] decode_video start
[*] next target filter 0x1a53e00
[*] next target filter 0x1a53e00
[*] decode_video start
[*] decode_video start
[*] next target filter 0x1a53e00
[*] decode_video start
[*] decode_video start
[*] next target filter 0x1a53e00
[*] next target filter 0x1a53e00
[*] decode_video start
[*] decode_video start
[*] next target filter 0x1a53e00
[*] next target filter 0x1a53e00
[*] decode_video start
[*] decode_video start
[*] next target filter 0x1a53e00
[*] next target filter 0x1a53e00
[*] decode_video start
[*] decode_video start
[*] next target filter 0x1a53e00
[*] next target filter 0x1a53e00
[*] decode_video start
[*] decode_video start
[*] next target filter 0x1a53e00
[*] next target filter 0x1a53e00
[*] decode_video start
[*] decode_video start
[*] next target filter 0x1a53e00
[*] next target filter 0x1a53e00
[*] decode_video start
[*] decode_video start
[*] next target filter 0x1a53e00
[*] next target filter 0x1a53e00
[*] decode_video start
[*] decode_video start
[*] next target filter 0x1a53e00
[*] decode_video start
[*] decode_video start
[*] next target filter 0x1a53e00
[*] next target filter 0x1a53e00
[*] decode_video start
[*] decode_video start
[*] next target filter 0x1a53e00
[*] next target filter 0x1a53e00
[*] decode_video start
[*] decode_video start
[*] next target filter 0x1a53e00
[*] next target filter 0x1a53e00
[*] decode_video start
[*] decode_video start
[*] next target filter 0x1a53e00
[*] next target filter 0x1a53e00
[*] decode_video start
[*] decode_video start
[*] next target filter 0x1a53e00
[*] next target filter 0x1a53e00
[*] decode_video start
[*] decode_video start
[*] next target filter 0x1a53e00
[*] next target filter 0x1a53e00
[*] decode_video start
[*] decode_video start
[*] next target filter 0x1a53e00
[*] next target filter 0x1a53e00
[*] decode_video start
[*] decode_video start
[*] next target filter 0x1a53e00
[*] decode_video start
[*] decode_video start
[*] next target filter 0x1a53e00
[*] next target filter 0x1a53e00
[*] decode_video start
[*] decode_video start
[*] next target filter 0x1a53e00
[*] next target filter 0x1a53e00
[*] decode_video start
[*] decode_video start
[*] next target filter 0x1a53e00
[*] next target filter 0x1a53e00
[*] decode_video start
[*] decode_video start
[*] next target filter 0x1a53e00
[*] next target filter 0x1a53e00
[*] decode_video start
[*] decode_video start
[*] next target filter 0x1a53e00
[*] next target filter 0x1a53e00
[*] decode_video start
[*] decode_video start
[*] next target filter 0x1a53e00
[*] next target filter 0x1a53e00
[*] decode_video start
[*] decode_video start
[*] next target filter 0x1a53e00
[*] next target filter 0x1a53e00
[*] decode_video start
[*] decode_video start
[*] next target filter 0x1a53e00
[*] decode_video start
[*] decode_video start
[*] next target filter 0x1a53e00
[*] next target filter 0x1a53e00
[*] decode_video start
[*] decode_video start
[*] next target filter 0x1a53e00
[*] next target filter 0x1a53e00
[*] decode_video start
[*] decode_video start
[*] next target filter 0x1a53e00
[*] next target filter 0x1a53e00
[*] decode_video start
[*] decode_video start
[*] next target filter 0x1a53e00
[*] next target filter 0x1a53e00
[*] decode_video start
[*] decode_video start
[*] next target filter 0x1a53e00
[*] next target filter 0x1a53e00
[*] decode_video start
[*] decode_frame=    1 fps=0.5 q=0.0 size=       0kB time=00:00:10.92 bitrate=   0.0kbits/s speed=5.45x    video start
[*] next target filter 0x1a53e00
[*] next target filter 0x1a53e00
[*] decode_video start
[*] decode_video start
[*] next target filter 0x1a53e00
[*] next target filter 0x1a53e00
[*] decode_video start
[*] decode_video start
[*] next target filter 0x1a53e00
[*] decode_video start
[*] decode_video start
[*] next target filter 0x1a53e00
[*] next target filter 0x1a53e00
[*] decode_video start
[*] decode_video start
[*] next target filter 0x1a53e00
[*] next target filter 0x1a53e00
[*] decode_video start
[*] decode_video start
[*] next target filter 0x1a53e00
[*] next target filter 0x1a53e00
[*] decode_video start
[*] decode_video start
[*] next target filter 0x1a53e00
[*] next target filter 0x1a53e00
[*] decode_video start
[*] decode_video start
[*] next target filter 0x1a53e00
[*] next target filter 0x1a53e00
[*] decode_video start
[*] decode_video start
[*] next target filter 0x1a53e00
[*] next target filter 0x1a53e00
[*] decode_video start
[*] decode_video start
[*] next target filter 0x1a53e00
[*] next target filter 0x1a53e00
[*] decode_video start
[*] decode_video start
[*] next target filter 0x1a53e00
[*] decode_video start
[*] decode_video start
[*] next target filter 0x1a53e00
[*] next target filter 0x1a53e00
[*] decode_video start
[*] decode_video start
[*] next target filter 0x1a53e00
[*] next target filter 0x1a53e00
[*] decode_video start
[*] decode_video start
[*] next target filter 0x1a53e00
[*] next target filter 0x1a53e00
[*] decode_video start
[*] decode_video start
[*] next target filter 0x1a53e00
[*] next target filter 0x1a53e00
[*] decode_video start
[*] decode_video start
[*] next target filter 0x1a53e00
[*] next target filter 0x1a53e00
[*] decode_video start
[*] decode_video start
[*] next target filter 0x1a53e00
[*] next target filter 0x1a53e00
[*] decode_video start
[*] decode_video start
[*] next target filter 0x1a53e00
[*] next target filter 0x1a53e00
[*] decode_video start
[*] decode_video start
[*] next target filter 0x1a53e00
[*] decode_video start
[*] decode_video start
[*] next target filter 0x1a53e00
[*] next target filter 0x1a53e00
[*] decode_video start
[*] decode_video start
[*] next target filter 0x1a53e00
[*] next target filter 0x1a53e00
[*] decode_video start
[*] decode_video start
[*] next target filter 0x1a53e00
[*] next target filter 0x1a53e00
[*] decode_video start
[*] decode_video start
[*] next target filter 0x1a53e00
[*] next target filter 0x1a53e00
[*] decode_video start
[*] decode_video start
[*] next target filter 0x1a53e00
[*] next target filter 0x1a53e00
[*] decode_video start
[*] decode_video start
[*] next target filter 0x1a53e00
[*] next target filter 0x1a53e00
[*] decode_video start
[*] decode_video start
[*] next target filter 0x1a53e00
[*] next target filter 0x1a53e00
[*] decode_video start
[*] decode_video start
[*] next target filter 0x1a53e00
[*] decode_video start
[*] decode_video start
[*] next target filter 0x1a53e00
[*] next target filter 0x1a53e00
[*] decode_video start
[*] decode_video start
[*] next target filter 0x1a53e00
[*] next target filter 0x1a53e00
[*] decode_video start
[*] decode_video start
[*] next target filter 0x1a53e00
[*] next target filter 0x1a53e00
[*] decode_video start
[*] decode_video start
[*] next target filter 0x1a53e00
[*] next target filter 0x1a53e00
[*] decode_video start
[*] decode_video start
[*] next target filter 0x1a53e00
[*] next target filter 0x1a53e00
[*] decode_video start
[*] decode_video start
[*] next target filter 0x1a53e00
[*] next target filter 0x1a53e00
[*] decode_video start
[*] decode_video start
[*] next target filter 0x1a53e00
[*] next target filter 0x1a53e00
[*] decode_video start
[*] decode_video start
[*] next target filter 0x1a53e00
[*] decode_video start
[*] decode_video start
[*] next target filter 0x1a53e00
[*] next target filter 0x1a53e00
[*] decode_video start
[*] decode_video start
[*] next target filter 0x1a53e00
[*] next target filter 0x1a53e00
[*] decode_video start
[*] decode_video start
[*] next target filter 0x1a53e00
[*] next target filter 0x1a53e00
[*] decode_video start
[*] decode_video start
[*] next target filter 0x1a53e00
[*] next target filter 0x1a53e00
[*] decode_video start
[*] decode_video start
[*] next target filter 0x1a53e00
[*] next target filter 0x1a53e00
[*] decode_video start
[*] decode_video start
[*] next target filter 0x1a53e00
[*] next target filter 0x1a53e00
[*] decode_video start
[*] decode_video start
[*] next target filter 0x1a53e00
[*] next target filter 0x1a53e00
[*] decode_video start
[*] decode_video start
[*] next target filter 0x1a53e00
[*] decode_video start
[*] decode_video start
[*] next target filter 0x1a53e00
[*] next target filter 0x1a53e00
[*] decode_video start
[*] decode_video start
[*] next target filter 0x1a53e00
[*] next target filter 0x1a53e00
[*] decode_video start
[*] decode_video start
[*] next target filter 0x1a53e00
[*] next target filter 0x1a53e00
[*] decode_video start
[*] decode_video start
[*] next target filter 0x1a53e00
[*] next target filter 0x1a53e00
[*] decode_video start
[*] decode_video start
[*] next target filter 0x1a53e00
[*] next target filter 0x1a53e00
[*] decode_video start
[*] decode_video start
[*] next target filter 0x1a53e00
[*] next target filter 0x1a53e00
[*] decode_video start
[*] decode_video start
[*] next target filter 0x1a53e00
[*] next target filter 0x1a53e00
[*] decode_video start
[*] decode_video start
[*] next target filter 0x1a53e00
[*] decode_video start
[*] decode_video start
[*] next target filter 0x1a53e00
[*] next target filter 0x1a53e00
[*] decode_video start
[*] decode_video start
[*] next target filter 0x1a53e00
[*] next target filter 0x1a53e00
[*] decode_video start
[*] decode_video start
[*] next target filter 0x1a53e00
[*] next target filter 0x1a53e00
[*] decode_video start
[*] decode_video start
[*] next target filter 0x1a53e00
[*] next target filter 0x1a53e00
[*] decode_video start
[*] decode_video start
[*] next target filter 0x1a53e00
[*] next target filter 0x1a53e00
[*] decode_video start
[*] decode_video start
[*] next target filter 0x1a53e00
[*] next target filter 0x1a53e00
[*] decode_video start
[*] decode_video start
[*] next target filter 0x1a53e00
[*] next target filter 0x1a53e00
[*] decode_video start
[*] decode_video start
[*] next target filter 0x1a53e00
[*] decode_video start
[*] decode_video start
[*] next target filter 0x1a53e00
[*] next target filter 0x1a53e00
[*] decode_video start
[*] decode_video start
[*] next target filter 0x1a53e00
[*] next target filter 0x1a53e00
[*] decode_video start
[*] decode_video start
[*] next target filter 0x1a53e00
[*] next target filter 0x1a53e00
[*] decode_video start
[*] decode_video start
[*] next target filter 0x1a53e00
[*] next target filter 0x1a53e00
[*] decode_video start
[*] decode_video start
[*] next target filter 0x1a53e00
[*] next target filter 0x1a53e00
[*] decode_video start
[*] decode_video start
[*] next target filter 0x1a53e00
[*] next target filter 0x1a53e00
[*] decode_video start
[*] decode_video start
[*] next target filter 0x1a53e00
[*] next target filter 0x1a53e00
[*] decode_video start
[*] decode_video start
[*] next target filter 0x1a53e00
[*] decode_video start
[*] decode_video start
[*] next target filter 0x1a53e00
[*] next target filter 0x1a53e00
[*] decode_video start
[*] decode_video start
[*] next target filter 0x1a53e00
[*] next target filter 0x1a53e00
[*] decode_video start
[*] decode_video start
[*] next target filter 0x1a53e00
[*] next target filter 0x1a53e00
[*] decode_video start
[*] decode_video start
[*] next target filter 0x1a53e00
[*] next target filter 0x1a53e00
[*] decode_video start
send_frame_to_filters before 0
[*] next target filter 0x199b680
[*] input frame addr 0x2480a20
[*] key_frame: 1
thumbnail_opencl_filter_frame:369
thumbnail_opencl_filter_frame:423
[*] test decoded_frame addr 0x199b680
send_frame_to_filters after 0
[*] decode_video start
[*] next target filter 0x1a53e00
[*] next target filter 0x1a53e00
[*] decode_video start
[*] decode_video start
[*] next target filter 0x1a53e00
[*] next target filter 0x1a53e00
[*] decode_video start
[*] decode_video start
[*] next target filter 0x1a53e00
[*] next target filtframe=    1 fps=0.4 q=0.0 size=       0kB time=00:00:14.35 bitrate=   0.0kbits/s speed=5.72x    er 0x1a53e00
[*] decode_video start
[*] decode_video start
[*] next target filter 0x1a53e00
[*] decode_video start
[*] decode_video start
[*] next target filter 0x1a53e00
[*] next target filter 0x1a53e00
[*] decode_video start
[*] decode_video start
[*] next target filter 0x1a53e00
[*] next target filter 0x1a53e00
[*] decode_video start
[*] decode_video start
[*] next target filter 0x1a53e00
[*] next target filter 0x1a53e00
[*] decode_video start
[*] decode_video start
[*] next target filter 0x1a53e00
[*] next target filter 0x1a53e00
[*] decode_video start
[*] decode_video start
[*] next target filter 0x1a53e00
[*] next target filter 0x1a53e00
[*] decode_video start
[*] decode_video start
[*] next target filter 0x1a53e00
[*] next target filter 0x1a53e00
[*] decode_video start
[*] decode_video start
[*] next target filter 0x1a53e00
[*] next target filter 0x1a53e00
[*] decode_video start
[*] decode_video start
[*] next target filter 0x1a53e00
[*] decode_video start
[*] decode_video start
[*] next target filter 0x1a53e00
[*] next target filter 0x1a53e00
[*] decode_video start
[*] decode_video start
[*] next target filter 0x1a53e00
[*] next target filter 0x1a53e00
[*] decode_video start
[*] decode_video start
[*] next target filter 0x1a53e00
[*] next target filter 0x1a53e00
[*] decode_video start
[*] decode_video start
[*] next target filter 0x1a53e00
[*] next target filter 0x1a53e00
[*] decode_video start
[*] decode_video start
[*] next target filter 0x1a53e00
[*] next target filter 0x1a53e00
[*] decode_video start
[*] decode_video start
[*] next target filter 0x1a53e00
[*] next target filter 0x1a53e00
[*] decode_video start
[*] decode_video start
[*] next target filter 0x1a53e00
[*] next target filter 0x1a53e00
[*] decode_video start
[*] decode_video start
[*] next target filter 0x1a53e00
[*] decode_video start
[*] decode_video start
[*] next target filter 0x1a53e00
[*] next target filter 0x1a53e00
[*] decode_video start
[*] decode_video start
[*] next target filter 0x1a53e00
[*] next target filter 0x1a53e00
[*] decode_video start
[*] decode_video start
[*] next target filter 0x1a53e00
[*] next target filter 0x1a53e00
[*] decode_video start
[*] decode_video start
[*] next target filter 0x1a53e00
[*] next target filter 0x1a53e00
[*] decode_video start
[*] decode_video start
[*] next target filter 0x1a53e00
[*] next target filter 0x1a53e00
[*] decode_video start
[*] decode_video start
[*] next target filter 0x1a53e00
[*] next target filter 0x1a53e00
[*] decode_video start
[*] decode_video start
[*] next target filter 0x1a53e00
[*] next target filter 0x1a53e00
[*] decode_video start
[*] decode_video start
[*] next target filter 0x1a53e00
[*] decode_video start
[*] decode_video start
[*] next target filter 0x1a53e00
[*] next target filter 0x1a53e00
[*] decode_video start
[*] decode_video start
[*] next target filter 0x1a53e00
[*] next target filter 0x1a53e00
[*] decode_video start
[*] decode_video start
[*] next target filter 0x1a53e00
[*] next target filter 0x1a53e00
[*] decode_video start
[*] decode_video start
[*] next target filter 0x1a53e00
[*] next target filter 0x1a53e00
[*] decode_video start
[*] decode_video start
[*] next target filter 0x1a53e00
[*] next target filter 0x1a53e00
[*] decode_video start
[*] decode_video start
[*] next target filter 0x1a53e00
[*] next target filter 0x1a53e00
[*] decode_video start
[*] decode_video start
[*] next target filter 0x1a53e00
[*] next target filter 0x1a53e00
[*] decode_video start
[*] decode_video start
[*] next target filter 0x1a53e00
[*] decode_video start
[*] decode_video start
[*] next target filter 0x1a53e00
[*] next target filter 0x1a53e00
[*] decode_video start
[*] decode_video start
[*] next target filter 0x1a53e00
[*] next target filter 0x1a53e00
[*] decode_video start
[*] decode_video start
[*] next target filter 0x1a53e00
[*] next target filter 0x1a53e00
[*] decode_video start
[*] decode_video start
[*] next target filter 0x1a53e00
[*] next target filter 0x1a53e00
[*] decode_video start
[*] decode_video start
[*] next target filter 0x1a53e00
[*] next target filter 0x1a53e00
[*] decode_video start
[*] decode_video start
[*] next target filter 0x1a53e00
[*] next target filter 0x1a53e00
[*] decode_video start
[*] decode_video start
[*] next target filter 0x1a53e00
[*] next target filter 0x1a53e00
[*] decode_video start
[*] decode_video start
[*] next target filter 0x1a53e00
[*] decode_video start
[*] decode_video start
[*] next target filter 0x1a53e00
[*] next target filter 0x1a53e00
[*] decode_video start
[*] decode_video start
[*] next target filter 0x1a53e00
[*] next target filter 0x1a53e00
[*] decode_video start
[*] decode_video start
[*] next target filter 0x1a53e00
[*] next target filter 0x1a53e00
[*] decode_video start
[*] decode_video start
[*] next target filter 0x1a53e00
[*] next target filter 0x1a53e00
[*] decode_video start
[*] decode_video start
[*] next target filter 0x1a53e00
[*] next target filter 0x1a53e00
[*] decode_video start
[*] decode_video start
[*] next target filter 0x1a53e00
[*] next target filter 0x1a53e00
[*] decode_video start
[*] decode_video start
[*] next target filter 0x1a53e00
[*] next target filter 0x1a53e00
[*] decode_video start
[*] decode_video start
[*] next target filter 0x1a53e00
[*] decode_video start
[*] decode_video start
[*] next target filter 0x1a53e00
[*] next target filter 0x1a53e00
[*] decode_video start
[*] decode_video start
[*] next target filter 0x1a53e00
[*] next target filter 0x1a53e00
[*] decode_video start
[*] decode_video start
[*] next target filter 0x1a53e00
[*] next target filter 0x1a53e00
[*] decode_video start
[*] decode_video start
[*] next target filter 0x1a53e00
[*] next target filter 0x1a53e00
[*] decode_video start
[*] decode_video start
[*] next target filter 0x1a53e00
[*] next target filter 0x1a53e00
[*] decode_video start
[*] decode_video start
[*] next target filter 0x1a53e00
[*] next target filter 0x1a53e00
[*] decode_video start
[*] decode_video start
[*] next target filter 0x1a53e00
[*] next target filter 0x1a53e00
[*] decode_video start
[*] decode_video start
[*] next target filter 0x1a53e00
[*] decode_video start
[*] decode_video start
[*] next target filter 0x1a53e00
[*] next target filter 0x1a53e00
[*] decode_video start
[*] decode_video start
[*] next target filter 0x1a53e00
[*] next target filter 0x1a53e00
[*] decode_video start
[*] decode_video start
[*] next target filter 0x1a53e00
[*] next target filter 0x1a53e00
[*] decode_video start
[*] decode_video start
[*] next target filter 0x1a53e00
[*] next target filter 0x1a53e00
[*] decode_video start
[*] decode_video start
[*] next target filter 0x1a53e00
[*] next target filter 0x1a53e00
[*] decode_video start
[*] decode_video start
[*] next target filter 0x1a53e00
[*] next target filter 0x1a53e00
[*] decode_video start
[*] decode_video start
[*] next target filter 0x1a53e00
[*] next target filter 0x1a53e00
[*] decode_video start
[*] decode_video start
[*] next target filter 0x1a53e00
[*] decode_video start
[*] decode_video start
[*] next target filter 0x1a53e00
[*] next target filter 0x1a53e00
[*] decode_video start
[*] decode_video start
[*] next target filter 0x1a53e00
[*] next target filter 0x1a53e00
[*] decode_video start
[*] decode_video start
[*] next target filter 0x1a53e00
[*] next target filter 0x1a53e00
[*] decode_video start
[*] decode_video start
[*] next target filter 0x1a53e00
[*] next target filter 0x1a53e00
[*] decode_video start
[*] decode_video start
[*] next target filter 0x1a53e00
[*] next target filter 0x1a53e00
[*] decode_video start
[*] decode_video start
[*] next target filter 0x1a53e00
[*] next target filter 0x1a53e00
[*] decode_video start
[*] decode_video start
[*] next target filter 0x1a53e00
[*] next target filter 0x1a53e00
[*] decode_video start
[*] decode_video start
[*] next target filter 0x1a53e00
[*] decode_video start
[*] decode_video start
[*] next target filter 0x1a53e00
[*] next target filter 0x1a53e00
[*] decode_video start
[*] decode_video start
[*] next target filter 0x1a53e00
[*] next target filter 0x1a53e00
[*] decode_video start
send_frame_to_filters before 0
[*] next target filter 0x199b680
[*] input frame addr 0[Parsed_thumbnail_opencl_2 @ 0x18b6760] frame id #0 (pts_time=12.960000) selected from a set of 2 images
frame=  325 fps= 32 q=28.0 size=     512kB time=00:00:16.38 bitrate= 256.0kbits/s dup=323 drop=0 speed=1.61x    x24d0440
[*] key_frame: 1
thumbnail_opencl_filter_frame:369
thumbnail_opencl_filter_frame:423
thumbnail_opencl_filter_frame:431
thumbnail_opencl_filter_frame:438
[*] test decoded_frame addr 0x199b680
send_frame_to_filters after 0
[*] decode_video start
[*] next target filter 0x1a53e00
[*] next target filter 0x1a53e00
[*] decode_video start
[*] decode_video start
[*] next target filter 0x1a53e00
[*] next target filter 0x1a53e00
[*] decode_video start
[*] decode_video start
[*] next target filter 0x1a53e00
[*] next target filter 0x1a53e00
[*] decode_video start
[*] decode_video start
[*] next target filter 0x1a53e00
[*] next target filter 0x1a53e00
[*] decode_video start
[*] decode_video start
[*] next target filter 0x1a53e00
[*] next target filter 0x1a53e00
[*] decode_video start
[*] decode_video start
[*] next target filter 0x1a53e00
[*] decode_video start
[*] decode_video start
[*] next target filter 0x1a53e00
[*] next target filter 0x1a53e00
[*] decode_video start
[*] decode_video start
[*] next target filter 0x1a53e00
[*] next target filter 0x1a53e00
[*] decode_video start
[*] decode_video start
[*] next target filter 0x1a53e00
[*] next target filter 0x1a53e00
[*] decode_video start
[*] decode_video start
[*] next target filter 0x1a53e00
[*] next target filter 0x1a53e00
[*] decode_video start
[*] decode_video start
[*] next target filter 0x1a53e00
[*] next target filter 0x1a53e00
[*] decode_video start
[*] decode_video start
[*] next target filter 0x1a53e00
[*] next target filter 0x1a53e00
[*] decode_video start
[*] decode_video start
[*] next target filter 0x1a53e00
[*] next target filter 0x1a53e00
[*] decode_video start
[*] decode_video start
[*] next target filter 0x1a53e00
[*] decode_video start
[*] decode_video start
[*] next target filter 0x1a53e00
[*] next target filter 0x1a53e00
[*] decode_video start
[*] decode_video start
[*] next target filter 0x1a53e00
[*] next target filter 0x1a53e00
[*] decode_video start
[*] decode_video start
[*] next target filter 0x1a53e00
[*] next target filter 0x1a53e00
[*] decode_video start
[*] decode_video start
[*] next target filter 0x1a53e00
[*] next target filter 0x1a53e00
[*] decode_video start
[*] decode_video start
[*] next target filter 0x1a53e00
[*] next target filter 0x1a53e00
[*] decode_video start
[*] decode_video start
[*] next target filter 0x1a53e00
[*] next target filter 0x1a53e00
[*] decode_video start
[*] decode_video start
[*] next target filter 0x1a53e00
[*] next target filter 0x1a53e00
[*] decode_video start
[*] decode_video start
[*] next target filter 0x1a53e00
[*] decode_video start
[*] decode_video start
[*] next target filter 0x1a53e00
[*] next target filter 0x1a53e00
[*] decode_video start
[*] decode_video start
[*] next target filter 0x1a53e00
[*] next target filter 0x1a53e00
[*] decode_video start
[*] decode_video start
[*] next target filter 0x1a53e00
[*] next target filter 0x1a53e00
[*] decode_video start
[*] decode_video start
[*] next target filter 0x1a53e00
[*] next target filter 0x1a53e00
[*] decode_video start
[*] decode_video start
[*] next target filter 0x1a53e00
[*] next target filter 0x1a53e00
[*] decode_video start
[*] decode_video start
[*] next target filter 0x1a53e00
[*] next target filter 0x1a53e00
[*] decode_video start
[*] decode_video start
[*] next target filter 0x1a53e00
[*] next target filter 0x1a53e00
[*] decode_video start
[*] decode_video start
[*] next target filter 0x1a53e00
[*] decode_video start
[*] decode_video start
[*] next target filter 0x1a53e00
[*] next target filter 0x1a53e00
[*] decode_video start
[*] decode_video start
[*] next target filter 0x1a53e00
[*] next target filter 0x1a53e00
[*] decode_video start
[*] decode_video start
[*] next target filter 0x1a53e00
[*] next target filter 0x1a53e00
[*] decode_video start
[*] decode_video start
[*] next target filter 0x1a53e00
[*] next target filter 0x1a53e00
[*] decode_video start
[*] decode_video start
[*] next target filter 0x1a53e00
[*] next target filter 0x1a53e00
[*] decode_video start
[*] decode_video start
[*] next target filter 0x1a53e00
[*] next target filter 0x1a53e00
[*] decode_video start
[*] decode_video start
[*] next target filter 0x1a53e00
[*] next target filter 0x1a53e00
[*] decode_video start
[*] decode_video start
[*] next target filter 0x1a53e00
[*] decode_video start
[*] decode_video start
[*] next target filter 0x1a53e00
[*] next target filter 0x1a53e00
[*] decode_video start
[*] decode_video start
[*] next target filter 0x1a53e00
[*] next target filter 0x1a53e00
[*] decode_video start
[*] decode_video start
[*] next target filter 0x1a53e00
[*] next target filter 0x1a53e00
[*] decode_video start
[*] decode_video start
[*] next target filter 0x1a53e00
[*] next target filter 0x1a53e00
[*] decode_video start
[*] decode_video start
[*] next target filter 0x1a53e00
[*] next target filter 0x1a53e00
[*] decode_video start
[*] decode_video start
[*] next target filter 0x1a53e00
[*] next target filter 0x1a53e00
[*] decode_video start
[*] decode_video start
[*] next target filter 0x1a53e00
[*] next target filter 0x1a53e00
[*] decode_video start
[*] decode_video start
[*] next target filter 0x1a53e00
[*] decode_video start
[*] decode_video start
[*] next target filter 0x1a53e00
[*] next target filter 0x1a53e00
[*] decode_video start
[*] decode_video start
[*] next target filter 0x1a53e00
[*] next target filter 0x1a53e00
[*] decode_video start
[*] decode_video start
[*] next target filter 0x1a53e00
[*] next target filter 0x1a53e00
[*] decode_video start
[*] decode_video start
[*] next target filter 0x1a53e00
[*] next target filter 0x1a53e00
[*] decode_video start
[*] decode_video start
[*] next target filter 0x1a53e00
[*] next target filter 0x1a53e00
[*] decode_video start
[*] decode_video start
[*] next target filter 0x1a53e00
[*] next target filter 0x1a53e00
[*] decode_video start
[*] decode_video start
[*] next target filter 0x1a53e00
[*] next target filter 0x1a53e00
[*] decode_video start
[*] decode_video start
[*] next target filter 0x1a53e00
[*] decode_video start
[*] decode_video start
[*] next target filter 0x1a53e00
[*] next target filter 0x1a53e00
[*] decode_video start
[*] decode_video start
[*] next target filter 0x1a53e00
[*] next target filter 0x1a53e00
[*] decode_video start
[*] decode_video start
[*] next target filter 0x1a53e00
[*] next target filter 0x1a53e00
[*] decode_video start
[*] decode_video start
[*] next target filter 0x1a53e00
[*] next target filter 0x1a53e00
[*] decode_video start
[*] decode_video start
[*] next target filter 0x1a53e00
[*] next target filter 0x1a53e00
[*] decode_video start
[*] decode_video start
[*] next target filter 0x1a53e00
[*] next target filter 0x1a53e00
[*] decode_video start
[*] decode_video start
[*] next target filter 0x1a53e00
[*] next target filter 0x1a53e00
[*] decode_video start
[*] decode_video start
[*] next target filter 0x1a53e00
[*] decode_video start
[*] decode_video start
[*] next target filter 0x1a53e00
[*] next target filter 0x1a53e00
[*] decode_video start
[*] decode_video start
[*] next target filter 0x1a53e00
[*] next target filter 0x1a53e00
[*] decode_video start
[*] decode_video start
[*] next target filter 0x1a53e00
[*] next target filter 0x1a53e00
[*] decode_video start
[*] decode_video start
[*] next target filter 0x1a53e00
[*] next target filter 0x1a53e00
[*] decode_video start
[*] decode_video start
[*] next target filter 0x1a53e00
[*] next target filter 0x1a53e00
[*] decode_video start
[*] decode_video start
[*] next target filter 0x1a53e00
[*] next target filter 0x1a53e00
[*] decode_video start
[*] decode_video start
[*] next target filter 0x1a53e00
[*] next target filter 0x1a53e00
[*] decode_video start
[*] decode_video start
[*] next target filter 0x1a53e00
[*] decode_video start
[*] decode_video start
[*] next target filter 0x1a53e00
[*] next target filter 0x1a53e00
[*] decode_video start
[*] decode_video start
[*] next target filter 0x1a53e00
[*] next target filter 0x1a53e00
[*] decode_video start
[*] decode_video start
[*] next target filter 0x1a53e00
[*] next target filter 0x1a53e00
[*] decode_video start
[*] decode_video start
[*] next target filter 0x1a53e00
[*] next target filter 0x1aframe=  325 fps= 30 q=28.0 size=     512kB time=00:00:19.73 bitrate= 212.6kbits/s dup=323 drop=0 speed=1.84x    53e00
[*] decode_video start
[*] decode_video start
[*] next target filter 0x1a53e00
[*] next target filter 0x1a53e00
[*] decode_video start
[*] decode_video start
[*] next target filter 0x1a53e00
[*] next target filter 0x1a53e00
[*] decode_video start
[*] decode_video start
[*] next target filter 0x1a53e00
[*] next target filter 0x1a53e00
[*] decode_video start
[*] decode_video start
[*] next target filter 0x1a53e00
[*] decode_video start
[*] decode_video start
[*] next target filter 0x1a53e00
[*] next target filter 0x1a53e00
[*] decode_video start
[*] decode_video start
[*] next target filter 0x1a53e00
[*] next target filter 0x1a53e00
[*] decode_video start
[*] decode_video start
[*] next target filter 0x1a53e00
[*] next target filter 0x1a53e00
[*] decode_video start
[*] decode_video start
[*] next target filter 0x1a53e00
[*] next target filter 0x1a53e00
[*] decode_video start
[*] decode_video start
[*] next target filter 0x1a53e00
[*] next target filter 0x1a53e00
[*] decode_video start
[*] decode_video start
[*] next target filter 0x1a53e00
[*] next target filter 0x1a53e00
[*] decode_video start
[*] decode_video start
[*] next target filter 0x1a53e00
[*] next target filter 0x1a53e00
[*] decode_video start
[*] decode_video start
[*] next target filter 0x1a53e00
[*] decode_video start
[*] decode_video start
[*] next target filter 0x1a53e00
[*] next target filter 0x1a53e00
[*] decode_video start
[*] decode_video start
[*] next target filter 0x1a53e00
[*] next target filter 0x1a53e00
[*] decode_video start
[*] decode_video start
[*] next target filter 0x1a53e00
[*] next target filter 0x1a53e00
[*] decode_video start
[*] decode_video start
[*] next target filter 0x1a53e00
[*] next target filter 0x1a53e00
[*] decode_video start
[*] decode_video start
[*] next target filter 0x1a53e00
[*] next target filter 0x1a53e00
[*] decode_video start
[*] decode_video start
[*] next target filter 0x1a53e00
[*] next target filter 0x1a53e00
[*] decode_video start
[*] decode_video start
[*] next target filter 0x1a53e00
[*] next target filter 0x1a53e00
[*] decode_video start
[*] decode_video start
[*] next target filter 0x1a53e00
[*] decode_video start
[*] decode_video start
[*] next target filter 0x1a53e00
[*] next target filter 0x1a53e00
[*] decode_video start
[*] decode_video start
[*] next target filter 0x1a53e00
[*] next target filter 0x1a53e00
[*] decode_video start
[*] decode_video start
[*] next target filter 0x1a53e00
[*] next target filter 0x1a53e00
[*] decode_video start
[*] decode_video start
[*] next target filter 0x1a53e00
[*] next target filter 0x1a53e00
[*] decode_video start
[*] decode_video start
[*] next target filter 0x1a53e00
[*] next target filter 0x1a53e00
[*] decode_video start
[*] decode_video start
[*] next target filter 0x1a53e00
[*] next target filter 0x1a53e00
[*] decode_video start
[*] decode_video start
[*] next target filter 0x1a53e00
[*] next target filter 0x1a53e00
[*] decode_video start
[*] decode_video start
[*] next target filter 0x1a53e00
[*] decode_video start
[*] decode_video start
[*] next target filter 0x1a53e00
[*] next target filter 0x1a53e00
[*] decode_video start
[*] decode_video start
[*] next target filter 0x1a53e00
[*] next target filter 0x1a53e00
[*] decode_video start
[*] decode_video start
[*] next target filter 0x1a53e00
[*] next target filter 0x1a53e00
[*] decode_video start
[*] decode_video start
[*] next target filter 0x1a53e00
[*] next target filter 0x1a53e00
[*] decode_video start
[*] decode_video start
[*] next target filter 0x1a53e00
[*] next target filter 0x1a53e00
[*] decode_video start
[*] decode_video start
[*] next target filter 0x1a53e00
[*] next target filter 0x1a53e00
[*] decode_video start
[*] decode_video start
[*] next target filter 0x1a53e00
[*] next target filter 0x1a53e00
[*] decode_video start
[*] decode_video start
[*] next target filter 0x1a53e00
[*] decode_video start
[*] decode_video start
[*] next target filter 0x1a53e00
[*] next target filter 0x1a53e00
[*] decode_video start
[*] decode_video start
[*] next target filter 0x1a53e00
[*] next target filter 0x1a53e00
[*] decode_video start
[*] decode_video start
[*] next target filter 0x1a53e00
[*] next target filter 0x1a53e00
[*] decode_video start
[*] decode_video start
[*] next target filter 0x1a53e00
[*] next target filter 0x1a53e00
[*] decode_video start
[*] decode_video start
[*] next target filter 0x1a53e00
[*] next target filter 0x1a53e00
[*] decode_video start
[*] decode_video start
[*] next target filter 0x1a53e00
[*] next target filter 0x1a53e00
[*] decode_video start
[*] decode_video start
[*] next target filter 0x1a53e00
[*] next target filter 0x1a53e00
[*] decode_video start
[*] decode_video start
[*] next target filter 0x1a53e00
[*] decode_video start
[*] decode_video start
[*] next target filter 0x1a53e00
[*] next target filter 0x1a53e00
[*] decode_video start
[*] decode_video start
[*] next target filter 0x1a53e00
[*] next target filter 0x1a53e00
[*] decode_video start
[*] decode_video start
[*] next target filter 0x1a53e00
[*] next target filter 0x1a53e00
[*] decode_video start
[*] decode_video start
[*] next target filter 0x1a53e00
[*] next target filter 0x1a53e00
[*] decode_video start
[*] decode_video start
[*] next target filter 0x1a53e00
[*] next target filter 0x1a53e00
[*] decode_video start
[*] decode_video start
[*] next target filter 0x1a53e00
[*] next target filter 0x1a53e00
[*] decode_video start
[*] decode_video start
[*] next target filter 0x1a53e00
[*] next target filter 0x1a53e00
[*] decode_video start
[*] decode_video start
[*] next target filter 0x1a53e00
[*] decode_video start
[*] decode_video start
[*] next target filter 0x1a53e00
[*] next target filter 0x1a53e00
[*] decode_video start
[*] decode_video start
[*] next target filter 0x1a53e00
[*] next target filter 0x1a53e00
[*] decode_video start
[*] decode_video start
[*] next target filter 0x1a53e00
[*] next target filter 0x1a53e00
[*] decode_video start
[*] decode_video start
[*] next target filter 0x1a53e00
[*] next target filter 0x1a53e00
[*] decode_video start
[*] decode_video start
[*] next target filter 0x1a53e00
[*] next target filter 0x1a53e00
[*] decode_video start
[*] decode_video start
[*] next target filter 0x1a53e00
[*] next target filter 0x1a53e00
[*] decode_video start
[*] decode_video start
[*] next target filter 0x1a53e00
[*] next target filter 0x1a53e00
[*] decode_video start
[*] decode_video start
[*] next target filter 0x1a53e00
[*] decode_video start
[*] decode_video start
[*] next target filter 0x1a53e00
[*] next target filter 0x1a53e00
[*] decode_video start
[*] decode_video start
[*] next target filter 0x1a53e00
[*] next target filter 0x1a53e00
[*] decode_video start
[*] decode_video start
[*] next target filter 0x1a53e00
[*] next target filter 0x1a53e00
[*] decode_video start
[*] decode_video start
[*] next target filter 0x1a53e00
[*] next target filter 0x1a53e00
[*] decode_video start
[*] decode_video start
[*] next target filter 0x1a53e00
[*] next target filter 0x1a53e00
[*] decode_video start
[*] decode_video start
[*] next target filter 0x1a53e00
[*] next target filter 0x1a53e00
[*] decode_video start
[*] decode_video start
[*] next target filter 0x1a53e00
[*] next target filter 0x1a53e00
[*] decode_video start
send_frame_to_filters before 0
[*] next target filter 0x199b680
[*] input frame addr 0x1ee3ce0
[*] key_frame: 1
thumbnail_opencl_filter_frame:369
thumbnail_opencl_filter_frame:423
[*] test decoded_frame addr 0x199b680
send_frame_to_filters after 0
[*] decode_video start
[*] next target filter 0x1a53e00
[*] decode_video start
[*] decode_video start
[*] next target filter 0x1a53e00
[*] next target filter 0x1a53e00
[*] decode_video start
[*] decode_video start
[*] next target filter 0x1a53e00
[*] next target filter 0x1a53e00
[*] decode_video start
[*] decode_video start
[*] next target filter 0x1a53e00
[*] next target filter 0x1a53e00
[*] decode_video start
[*] decode_video start
[*] next target filter 0x1a53e00
[*] next target filter 0x1a53e00
[*] decode_video start
[*] decode_video start
[*] next target filter 0x1a53e00
[*] next target filter 0x1a53e00
[*] decode_video start
[*] decode_video start
[*] next targframe=  325 fps= 29 q=28.0 size=     512kB time=00:00:23.16 bitrate= 181.1kbits/s dup=323 drop=0 speed=2.07x    et filter 0x1a53e00
[*] next target filter 0x1a53e00
[*] decode_video start
[*] decode_video start
[*] next target filter 0x1a53e00
[*] next target filter 0x1a53e00
[*] decode_video start
[*] decode_video start
[*] next target filter 0x1a53e00
[*] decode_video start
[*] decode_video start
[*] next target filter 0x1a53e00
[*] next target filter 0x1a53e00
[*] decode_video start
[*] decode_video start
[*] next target filter 0x1a53e00
[*] next target filter 0x1a53e00
[*] decode_video start
[*] decode_video start
[*] next target filter 0x1a53e00
[*] next target filter 0x1a53e00
[*] decode_video start
[*] decode_video start
[*] next target filter 0x1a53e00
[*] next target filter 0x1a53e00
[*] decode_video start
[*] decode_video start
[*] next target filter 0x1a53e00
[*] next target filter 0x1a53e00
[*] decode_video start
[*] decode_video start
[*] next target filter 0x1a53e00
[*] next target filter 0x1a53e00
[*] decode_video start
[*] decode_video start
[*] next target filter 0x1a53e00
[*] next target filter 0x1a53e00
[*] decode_video start
[*] decode_video start
[*] next target filter 0x1a53e00
[*] decode_video start
[*] decode_video start
[*] next target filter 0x1a53e00
[*] next target filter 0x1a53e00
[*] decode_video start
[*] decode_video start
[*] next target filter 0x1a53e00
[*] next target filter 0x1a53e00
[*] decode_video start
[*] decode_video start
[*] next target filter 0x1a53e00
[*] next target filter 0x1a53e00
[*] decode_video start
[*] decode_video start
[*] next target filter 0x1a53e00
[*] next target filter 0x1a53e00
[*] decode_video start
[*] decode_video start
[*] next target filter 0x1a53e00
[*] next target filter 0x1a53e00
[*] decode_video start
[*] decode_video start
[*] next target filter 0x1a53e00
[*] next target filter 0x1a53e00
[*] decode_video start
[*] decode_video start
[*] next target filter 0x1a53e00
[*] next target filter 0x1a53e00
[*] decode_video start
[*] decode_video start
[*] next target filter 0x1a53e00
[*] decode_video start
[*] decode_video start
[*] next target filter 0x1a53e00
[*] next target filter 0x1a53e00
[*] decode_video start
[*] decode_video start
[*] next target filter 0x1a53e00
[*] next target filter 0x1a53e00
[*] decode_video start
[*] decode_video start
[*] next target filter 0x1a53e00
[*] next target filter 0x1a53e00
[*] decode_video start
[*] decode_video start
[*] next target filter 0x1a53e00
[*] next target filter 0x1a53e00
[*] decode_video start
[*] decode_video start
[*] next target filter 0x1a53e00
[*] next target filter 0x1a53e00
[*] decode_video start
[*] decode_video start
[*] next target filter 0x1a53e00
[*] next target filter 0x1a53e00
[*] decode_video start
[*] decode_video start
[*] next target filter 0x1a53e00
[*] next target filter 0x1a53e00
[*] decode_video start
[*] decode_video start
[*] next target filter 0x1a53e00
[*] decode_video start
[*] decode_video start
[*] next target filter 0x1a53e00
[*] next target filter 0x1a53e00
[*] decode_video start
[*] decode_video start
[*] next target filter 0x1a53e00
[*] next target filter 0x1a53e00
[*] decode_video start
[*] decode_video start
[*] next target filter 0x1a53e00
[*] next target filter 0x1a53e00
[*] decode_video start
[*] decode_video start
[*] next target filter 0x1a53e00
[*] next target filter 0x1a53e00
[*] decode_video start
[*] decode_video start
[*] next target filter 0x1a53e00
[*] next target filter 0x1a53e00
[*] decode_video start
[*] decode_video start
[*] next target filter 0x1a53e00
[*] next target filter 0x1a53e00
[*] decode_video start
[*] decode_video start
[*] next target filter 0x1a53e00
[*] next target filter 0x1a53e00
[*] decode_video start
[*] decode_video start
[*] next target filter 0x1a53e00
[*] decode_video start
[*] decode_video start
[*] next target filter 0x1a53e00
[*] next target filter 0x1a53e00
[*] decode_video start
[*] decode_video start
[*] next target filter 0x1a53e00
[*] next target filter 0x1a53e00
[*] decode_video start
[*] decode_video start
[*] next target filter 0x1a53e00
[*] next target filter 0x1a53e00
[*] decode_video start
[*] decode_video start
[*] next target fi[Parsed_thumbnail_opencl_2 @ 0x18b6760] frame id #0 (pts_time=21.720000) selected from a set of 2 images
frame=  544 fps= 34 q=28.0 size=     768kB time=00:00:23.91 bitrate= 263.1kbits/s dup=541 drop=0 speed=1.51x    lter 0x1a53e00
[*] next target filter 0x1a53e00
[*] decode_video start
[*] decode_video start
[*] next target filter 0x1a53e00
[*] next target filter 0x1a53e00
[*] decode_video start
[*] decode_video start
[*] next target filter 0x1a53e00
[*] next target filter 0x1a53e00
[*] decode_video start
send_frame_to_filters before 0
[*] next target filter 0x199b680
[*] input frame addr 0x246fa10
[*] key_frame: 1
thumbnail_opencl_filter_frame:369
thumbnail_opencl_filter_frame:423
thumbnail_opencl_filter_frame:431
thumbnail_opencl_filter_frame:438
[*] test decoded_frame addr 0x199b680
send_frame_to_filters after 0
[*] decode_video start
[*] next target filter 0x1a53e00
[*] next target filter 0x1a53e00
[*] decode_video start
[*] decode_video start
[*] next target filter 0x1a53e00
[*] decode_video start
[*] decode_video start
[*] next target filter 0x1a53e00
[*] next target filter 0x1a53e00
[*] decode_video start
[*] decode_video start
[*] next target filter 0x1a53e00
[*] next target filter 0x1a53e00
[*] decode_video start
[*] decode_video start
[*] next target filter 0x1a53e00
[*] next target filter 0x1a53e00
[*] decode_video start
[*] decode_video start
[*] next target filter 0x1a53e00
[*] next target filter 0x1a53e00
[*] decode_video start
[*] decode_video start
[*] next target filter 0x1a53e00
[*] next target filter 0x1a53e00
[*] decode_video start
[*] decode_video start
[*] next target filter 0x1a53e00
[*] next target filter 0x1a53e00
[*] decode_video start
[*] decode_video start
[*] next target filter 0x1a53e00
[*] next target filter 0x1a53e00
[*] decode_video start
[*] decode_video start
[*] next target filter 0x1a53e00
[*] decode_video start
[*] decode_video start
[*] next target filter 0x1a53e00
[*] next target filter 0x1a53e00
[*] decode_video start
[*] decode_video start
[*] next target filter 0x1a53e00
[*] next target filter 0x1a53e00
[*] decode_video start
[*] decode_video start
[*] next target filter 0x1a53e00
[*] next target filter 0x1a53e00
[*] decode_video start
[*] decode_video start
[*] next target filter 0x1a53e00
[*] next target filter 0x1a53e00
[*] decode_video start
[*] decode_video start
[*] next target filter 0x1a53e00
[*] next target filter 0x1a53e00
[*] decode_video start
[*] decode_video start
[*] next target filter 0x1a53e00
[*] next target filter 0x1a53e00
[*] decode_video start
[*] decode_video start
[*] next target filter 0x1a53e00
[*] next target filter 0x1a53e00
[*] decode_video start
[*] decode_video start
[*] next target filter 0x1a53e00
[*] decode_video start
[*] decode_video start
[*] next target filter 0x1a53e00
[*] next target filter 0x1a53e00
[*] decode_video start
[*] decode_video start
[*] next target filter 0x1a53e00
[*] next target filter 0x1a53e00
[*] decode_video start
[*] decode_video start
[*] next target filter 0x1a53e00
[*] next target filter 0x1a53e00
[*] decode_video start
[*] decode_video start
[*] next target filter 0x1a53e00
[*] next target filter 0x1a53e00
[*] decode_video start
[*] decode_video start
[*] next target filter 0x1a53e00
[*] next target filter 0x1a53e00
[*] decode_video start
[*] decode_video start
[*] next target filter 0x1a53e00
[*] next target filter 0x1a53e00
[*] decode_video start
[*] decode_video start
[*] next target filter 0x1a53e00
[*] next target filter 0x1a53e00
[*] decode_video start
[*] decode_video start
[*] next target filter 0x1a53e00
[*] decode_video start
[*] decode_video start
[*] next target filter 0x1a53e00
[*] next target filter 0x1a53e00
[*] decode_video start
[*] decode_video start
[*] next target filter 0x1a53e00
[*] next target filter 0x1a53e00
[*] decode_video start
[*] decode_video start
[*] next target filter 0x1a53e00
[*] next target filter 0x1a53e00
[*] decode_video start
[*] decode_video start
[*] next target filter 0x1a53e00
[*] next target filter 0x1a53e00
[*] decode_video start
[*] decode_video start
[*] next target filter 0x1a53e00
[*] next target filter 0x1a53e00
[*] decode_video start
[*] decode_video start
[*] next target filter 0x1a53e00
[*] next target filter 0x1a53e00
[*] decode_video start
[*] decode_video start
[*] next target filter 0x1a53e00
[*] next target filter 0x1a53e00
[*] decode_video start
[*] decode_video start
[*] next target filter 0x1a53e00
[*] decode_video start
[*] decode_video start
[*] next target filter 0x1a53e00
[*] next target filter 0x1a53e00
[*] decode_video start
[*] decode_video start
[*] next target filter 0x1a53e00
[*] next target filter 0x1a53e00
[*] decode_video start
[*] decode_video start
[*] next target filter 0x1a53e00
[*] next target filter 0x1a53e00
[*] decode_video start
[*] decode_video start
[*] next target filter 0x1a53e00
[*] next target filter 0x1a53e00
[*] decode_video start
[*] decode_video start
[*] next target filter 0x1a53e00
[*] next target filter 0x1a53e00
[*] decode_video start
[*] decode_video start
[*] next target filter 0x1a53e00
[*] next target filter 0x1a53e00
[*] decode_video start
[*] decode_video start
[*] next target filter 0x1a53e00
[*] next target filter 0x1a53e00
[*] decode_video start
[*] decode_video start
[*] next target filter 0x1a53e00
[*] decode_video start
[*] decode_video start
[*] next target filter 0x1a53e00
[*] next target filter 0x1a53e00
[*] decode_video start
[*] decode_video start
[*] next target filter 0x1a53e00
[*] next target filter 0x1a53e00
[*] decode_video start
[*] decode_video start
[*] next target filter 0x1a53e00
[*] next target filter 0x1a53e00
[*] decode_video start
[*] decode_video start
[*] next target filter 0x1a53e00
[*] next target filter 0x1a53e00
[*] decode_video start
[*] decode_video start
[*] next target filter 0x1a53e00
[*] next target filter 0x1a53e00
[*] decode_video start
[*] decode_video start
[*] next target filter 0x1a53e00
[*] next target filter 0x1a53e00
[*] decode_video start
[*] decode_video start
[*] next target filter 0x1a53e00
[*] next target filter 0x1a53e00
[*] decode_video start
[*] decode_video start
[*] next target filter 0x1a53e00
[*] decode_video start
[*] decode_video start
[*] next target filter 0x1a53e00
[*] next target filter 0x1a53e00
[*] decode_video start
[*] decode_video start
[*] next target filter 0x1a53e00
[*] next target filter 0x1a53e00
[*] decode_video start
[*] decode_video start
[*] next target filter 0x1a53e00
[*] next target filter 0x1a53e00
[*] decode_video start
[*] decode_video start
[*] next target filter 0x1a53e00
[*] next target filter 0x1a53e00
[*] decode_video start
send_frame_to_filters before 0
[*] next target filter 0x199b680
[*] input frame addr 0x2460c40
[*] key_frame: 1
thumbnail_opencl_filter_frame:369
thumbnail_opencl_filter_frame:423
[*] test decoded_frame addr 0x199b680
send_frame_to_filters after 0
[*] decode_video start
[*] next target filter 0x1a53e00
[*] next target filter 0x1a53e00
[*] decode_video start
[*] decode_video start
[*] next target filter 0x1a53e00
[*] next target filter 0x1a53e00
[*] decode_video start
[*] decode_video start
[*] next target filter 0x1a53e00
[*] next target filter 0x1a53e00
[*] decode_video start
[*] decode_video start
[*] next target filter 0x1a53e00
[*] decode_video start
[*] decode_video start
[*] next target filter 0x1a53e00
[*] next target filter 0x1a53e00
[*] decode_video start
[*] decode_video start
[*] next target filter 0x1a53e00
[*] next target filter 0x1a53e00
[*] decode_video start
[*] decode_video start
[*] next target filter 0x1a53e00
[*] next target filter 0x1a53e00
[*] decode_video start
[*] decode_video start
[*] next target filter 0x1a53e00
[*] next target filter 0x1a53e00
[*] decode_video start
[*] decode_video start
[*] next target filter 0x1a53e00
[*] next target filter 0x1a53e00
[*] decode_video start
[*] decode_video start
[*] next target filter 0x1a53e00
[*] next target filter 0x1a53e00
[*] decode_video start
[*] decode_video start
[*] next target filter 0x1a53e00
[*] next target filter 0x1a53e00
[*] decode_video start
[*] decode_video start
[*] next target filter 0x1a53e00
[*] decode_video start
[*] decode_video start
[*] next target filter 0x1a53e00
[*] next target filter 0x1a53e00
[*] decode_video start
[*] decode_video start
[*] next target filter 0x1a53e00
[*] next target filter 0x1a53e00
[*] decode_video start
[*] decode_vidframe=  544 fps= 33 q=28.0 size=     768kB time=00:00:26.92 bitrate= 233.7kbits/s dup=541 drop=0 speed=1.64x    eo start
[*] next target filter 0x1a53e00
[*] next target filter 0x1a53e00
[*] decode_video start
[*] decode_video start
[*] next target filter 0x1a53e00
[*] next target filter 0x1a53e00
[*] decode_video start
[*] decode_video start
[*] next target filter 0x1a53e00
[*] next target filter 0x1a53e00
[*] decode_video start
[*] decode_video start
[*] next target filter 0x1a53e00
[*] next target filter 0x1a53e00
[*] decode_video start
[*] decode_video start
[*] next target filter 0x1a53e00
[*] next target filter 0x1a53e00
[*] decode_video start
[*] decode_video start
[*] next target filter 0x1a53e00
[*] decode_video start
[*] decode_video start
[*] next target filter 0x1a53e00
[*] next target filter 0x1a53e00
[*] decode_video start
[*] decode_video start
[*] next target filter 0x1a53e00
[*] next target filter 0x1a53e00
[*] decode_video start
[*] decode_video start
[*] next target filter 0x1a53e00
[*] next target filter 0x1a53e00
[*] decode_video start
[*] decode_video start
[*] next target filter 0x1a53e00
[*] next target filter 0x1a53e00
[*] decode_video start
[*] decode_video start
[*] next target filter 0x1a53e00
[*] next target filter 0x1a53e00
[*] decode_video start
[*] decode_video start
[*] next target filter 0x1a53e00
[*] next target filter 0x1a53e00
[*] decode_video start
[*] decode_video start
[*] next target filter 0x1a53e00
[*] next target filter 0x1a53e00
[*] decode_video start
[*] decode_video start
[*] next target filter 0x1a53e00
[*] decode_video start
[*] decode_video start
[*] next target filter 0x1a53e00
[*] next target filter 0x1a53e00
[*] decode_video start
[*] decode_video start
[*] next target filter 0x1a53e00
[*] next target filter 0x1a53e00
[*] decode_video start
[*] decode_video start
[*] next target filter 0x1a53e00
[*] next target filter 0x1a53e00
[*] decode_video start
[*] decode_video start
[*] next target filter 0x1a53e00
[*] next target filter 0x1a53e00
[*] decode_video start
[*] decode_video start
[*] next target filter 0x1a53e00
[*] next target filter 0x1a53e00
[*] decode_video start
[*] decode_video start
[*] next target filter 0x1a53e00
[*] next target filter 0x1a53e00
[*] decode_video start
[*] decode_video start
[*] next target filter 0x1a53e00
[*] next target filter 0x1a53e00
[*] decode_video start
[*] decode_video start
[*] next target filter 0x1a53e00
[*] decode_video start
[*] decode_video start
[*] next target filter 0x1a53e00
[*] next target filter 0x1a53e00
[*] decode_video start
[*] decode_video start
[*] next target filter 0x1a53e00
[*] next target filter 0x1a53e00
[*] decode_video start
[*] decode_video start
[*] next target filter 0x1a53e00
[*] next target filter 0x1a53e00
[*] decode_video start
[*] decode_video start
[*] next target filter 0x1a53e00
[*] next target filter 0x1a53e00
[*] decode_video start
[*] decode_video start
[*] next target filter 0x1a53e00
[*] next target filter 0x1a53e00
[*] decode_video start
[*] decode_video start
[*] next target filter 0x1a53e00
[*] next target filter 0x1a53e00
[*] decode_video start
[*] decode_video start
[*] next target filter 0x1a53e00
[*] next target filter 0x1a53e00
[*] decode_video start
[*] decode_video start
[*] next target filter 0x1a53e00
[*] decode_video start
[*] decode_video start
[*] next target filter 0x1a53e00
[*] next target filter 0x1a53e00
[*] decode_video start
[*] decode_video start
[*] next target filter 0x1a53e00
[*] next target filter 0x1a53e00
[*] decode_video start
[*] decode_video start
[*] next target filter 0x1a53e00
[*] next target filter 0x1a53e00
[*] decode_video start
[*] decode_video start
[*] next target filter 0x1a53e00
[*] next target filter 0x1a53e00
[*] decode_video start
[*] decode_video start
[*] next target filter 0x1a53e00
[*] next target filter 0x1a53e00
[*] decode_video start
[*] decode_video start
[*] next target filter 0x1a53e00
[*] next target filter 0x1a53e00
[*] decode_video start
[*] decode_video start
[*] next target filter 0x1a53e00
[*] next target filter 0x1a53e00
[*] decode_video start
[*] decode_video start
[*] next target filter 0x1a53e00
[*] decode_video start
send_frame_to_filte[Parsed_thumbnail_opencl_2 @ 0x18b6760] frame id #0 (pts_time=25.760000) selected from a set of 2 images
frame=  645 fps= 34 q=28.0 size=    1024kB time=00:00:28.13 bitrate= 298.1kbits/s dup=641 drop=0 speed=1.48x    rs before 0
[*] next target filter 0x199b680
[*] input frame addr 0x1ceee90
[*] key_frame: 1
thumbnail_opencl_filter_frame:369
thumbnail_opencl_filter_frame:423
thumbnail_opencl_filter_frame:431
thumbnail_opencl_filter_frame:438
[*] test decoded_frame addr 0x199b680
send_frame_to_filters after 0
[*] decode_video start
[*] next target filter 0x1a53e00
[*] next target filter 0x1a53e00
[*] decode_video start
[*] decode_video start
[*] next target filter 0x1a53e00
[*] next target filter 0x1a53e00
[*] decode_video start
[*] decode_video start
[*] next target filter 0x1a53e00
[*] next target filter 0x1a53e00
[*] decode_video start
[*] decode_video start
[*] next target filter 0x1a53e00
[*] next target filter 0x1a53e00
[*] decode_video start
[*] decode_video start
[*] next target filter 0x1a53e00
[*] next target filter 0x1a53e00
[*] decode_video start
[*] decode_video start
[*] next target filter 0x1a53e00
[*] next target filter 0x1a53e00
[*] decode_video start
[*] decode_video start
[*] next target filter 0x1a53e00
[*] next target filter 0x1a53e00
[*] decode_video start
[*] decode_video start
[*] next target filter 0x1a53e00
[*] decode_video start
[*] decode_video start
[*] next target filter 0x1a53e00
[*] next target filter 0x1a53e00
[*] decode_video start
[*] decode_video start
[*] next target filter 0x1a53e00
[*] next target filter 0x1a53e00
[*] decode_video start
[*] decode_video start
[*] next target filter 0x1a53e00
[*] next target filter 0x1a53e00
[*] decode_video start
[*] decode_video start
[*] next target filter 0x1a53e00
[*] next target filter 0x1a53e00
[*] decode_video start
[*] decode_video start
[*] next target filter 0x1a53e00
[*] next target filter 0x1a53e00
[*] decode_video start
[*] decode_video start
[*] next target filter 0x1a53e00
[*] next target filter 0x1a53e00
[*] decode_video start
[*] decode_video start
[*] next target filter 0x1a53e00
[*] next target filter 0x1a53e00
[*] decode_video start
[*] decode_video start
[*] next target filter 0x1a53e00
[*] decode_video start
[*] decode_video start
[*] next target filter 0x1a53e00
[*] next target filter 0x1a53e00
[*] decode_video start
[*] decode_video start
[*] next target filter 0x1a53e00
[*] next target filter 0x1a53e00
[*] decode_video start
[*] decode_video start
[*] next target filter 0x1a53e00
[*] next target filter 0x1a53e00
[*] decode_video start
[*] decode_video start
[*] next target filter 0x1a53e00
[*] next target filter 0x1a53e00
[*] decode_video start
[*] decode_video start
[*] next target filter 0x1a53e00
[*] next target filter 0x1a53e00
[*] decode_video start
[*] decode_video start
[*] next target filter 0x1a53e00
[*] next target filter 0x1a53e00
[*] decode_video start
[*] decode_video start
[*] next target filter 0x1a53e00
[*] next target filter 0x1a53e00
[*] decode_video start
[*] decode_video start
[*] next target filter 0x1a53e00
[*] decode_video start
[*] decode_video start
[*] next target filter 0x1a53e00
[*] next target filter 0x1a53e00
[*] decode_video start
[*] decode_video start
[*] next target filter 0x1a53e00
[*] next target filter 0x1a53e00
[*] decode_video start
[*] decode_video start
[*] next target filter 0x1a53e00
[*] next target filter 0x1a53e00
[*] decode_video start
[*] decode_video start
[*] next target filter 0x1a53e00
[*] next target filter 0x1a53e00
[*] decode_video start
[*] decode_video start
[*] next target filter 0x1a53e00
[*] next target filter 0x1a53e00
[*] decode_video start
[*] decode_video start
[*] next target filter 0x1a53e00
[*] next target filter 0x1a53e00
[*] decode_video start
[*] decode_video start
[*] next target filter 0x1a53e00
[*] next target filter 0x1a53e00
[*] decode_video start
[*] decode_video start
[*] next target filter 0x1a53e00
[*] decode_video start
[*] decode_video start
[*] next target filter 0x1a53e00
[*] next target filter 0x1a53e00
[*] decode_video start
[*] decode_video start
[*] next target filter 0x1a53e00
[*] next target filter 0x1a53e00
[*] decode_video start
[*] decode_video start
[*] next target filter 0x1a53e00
[*] next target filter 0x1a53e00
[*] decode_video start
[*] decode_More than 1000 frames duplicated
frame=  862 fps= 35 q=28.0 size=    1280kB time=00:00:32.12 bitrate= 326.5kbits/s dup=1075 drop=0 speed=1.32x    frame=  862 fps= 34 q=-1.0 Lsize=    1548kB time=00:00:34.36 bitrate= 369.1kbits/s dup=1075 drop=0 speed=1.35x    
video:279kB audio:1247kB subtitle:0kB other streams:0kB global headers:0kB muxing overhead: 1.469590%
[libx264 @ 0x18b8cf0] frame I:5     Avg QP:23.68  size: 43648
[libx264 @ 0x18b8cf0] frame P:216   Avg QP: 8.59  size:    63
[libx264 @ 0x18b8cf0] frame B:641   Avg QP:20.02  size:    83
[libx264 @ 0x18b8cf0] consecutive B-frames:  0.7%  0.5%  0.0% 98.8%
[libx264 @ 0x18b8cf0] mb I  I16..4: 18.4% 59.0% 22.6%
[libx264 @ 0x18b8cf0] mb P  I16..4:  0.0%  0.0%  0.0%  P16..4:  0.1%  0.1%  0.0%  0.0%  0.0%    skip:99.8%
[libx264 @ 0x18b8cf0] mb B  I16..4:  0.0%  0.0%  0.0%  B16..8:  0.9%  0.0%  0.0%  direct: 0.0%  skip:99.1%  L0:46.8% L1:53.0% BI: 0.1%
[libx264 @ 0x18b8cf0] 8x8 transform intra:60.1% inter:97.5%
[libx264 @ 0x18b8cf0] coded y,uvDC,uvAC intra: 64.5% 76.7% 28.4% inter: 0.0% 0.0% 0.0%
[libx264 @ 0x18b8cf0] i16 v,h,dc,p: 20% 45% 10% 25%
[libx264 @ 0x18b8cf0] i8 v,h,dc,ddl,ddr,vr,hd,vl,hu: 18% 19% 22%  7%  5%  7%  6%  9%  8%
[libx264 @ 0x18b8cf0] i4 v,h,dc,ddl,ddr,vr,hd,vl,hu: 23% 13% 11%  9%  9% 10%  7% 12%  6%
[libx264 @ 0x18b8cf0] i8c dc,h,v,p: 36% 31% 20% 12%
[libx264 @ 0x18b8cf0] Weighted P-Frames: Y:0.0% UV:0.0%
[libx264 @ 0x18b8cf0] ref P L0: 97.7%  1.1%  1.2%  0.1%
[libx264 @ 0x18b8cf0] ref B L0: 61.9% 38.0%  0.1%
[libx264 @ 0x18b8cf0] ref B L1: 98.3%  1.7%
[libx264 @ 0x18b8cf0] kb/s:66.17
[aac @ 0x17f8bd0] Qavg: 229.479
video start
[*] next target filter 0x1a53e00
[*] next target filter 0x1a53e00
[*] decode_video start
[*] decode_video start
[*] next target filter 0x1a53e00
[*] next target filter 0x1a53e00
[*] next target filter 0x1a53e00
[*] next target filter 0x1a53e00
[*] next target filter 0x1a53e00
[*] decode_video start
[*] decode_video start
[*] decode_video start
[*] decode_video start
[*] decode_video start
[*] decode_video start
[*] decode_video start
[*] decode_video start
[*] decode_video start
[*] decode_video start
[*] decode_video start

real	0m25.956s
user	2m19.515s
sys	0m2.215s
